<svg width="318" height="279" xmlns="http://www.w3.org/2000/svg" xmlns:xlink="http://www.w3.org/1999/xlink"><defs><path d="M310.34 153.5l-62.43 108.131a30 30 0 0 1-25.98 15H97.07a30 30 0 0 1-25.98-15L8.66 153.5a30 30 0 0 1 0-30L71.09 15.369a30 30 0 0 1 25.98-15h124.86a30 30 0 0 1 25.98 15L310.34 123.5a30 30 0 0 1 0 30z" id="a"/><linearGradient x1="50%" y1="3.125%" x2="50%" y2="97.125%" id="c"><stop stop-color="red" offset="0%"/><stop stop-color="#E0F" offset="100%"/></linearGradient><linearGradient x1="50%" y1="3.125%" x2="50%" y2="97.125%" id="d"><stop stop-color="#FF0019" offset="0%"/><stop stop-color="#CE00F3" offset="100%"/></linearGradient><linearGradient x1="50%" y1="3.125%" x2="50%" y2="97.125%" id="e"><stop stop-color="#FF0031" offset="0%"/><stop stop-color="#B000E6" offset="100%"/></linearGradient><linearGradient x1="50%" y1="3.125%" x2="50%" y2="97.125%" id="f"><stop stop-color="#FF004A" offset="0%"/><stop stop-color="#9400DA" offset="100%"/></linearGradient><linearGradient x1="50%" y1="3.125%" x2="50%" y2="97.125%" id="g"><stop stop-color="#FF0063" offset="0%"/><stop stop-color="#7A00CE" offset="100%"/></linearGradient><linearGradient x1="50%" y1="3.125%" x2="50%" y2="97.125%" id="h"><stop stop-color="#FF007C" offset="0%"/><stop stop-color="#6200C1" offset="100%"/></linearGradient><linearGradient x1="50%" y1="3.125%" x2="50%" y2="97.125%" id="i"><stop stop-color="#FF0094" offset="0%"/><stop stop-color="#4D00B5" offset="100%"/></linearGradient><linearGradient x1="50%" y1="3.125%" x2="50%" y2="97.125%" id="j"><stop stop-color="#FF00AD" offset="0%"/><stop stop-color="#3900A8" offset="100%"/></linearGradient><linearGradient x1="50%" y1="3.125%" x2="50%" y2="97.125%" id="k"><stop stop-color="#FF00C6" offset="0%"/><stop stop-color="#28009C" offset="100%"/></linearGradient><linearGradient x1="50%" y1="3.125%" x2="50%" y2="97.125%" id="l"><stop stop-color="#FF00DF" offset="0%"/><stop stop-color="#180090" offset="100%"/></linearGradient></defs><g fill="none" fill-rule="evenodd"><g transform="translate(-1 1)"><mask id="b" fill="#fff"><use xlink:href="#a"/></mask><path stroke="#979797" fill="#EE9C3F" mask="url(#b)" d="M0.5 -20.5H332.5V291.5H0.5z"/><g mask="url(#b)"><g transform="translate(-58 -13)" fill-rule="nonzero"><path fill="#D84994" d="M0.5 0H455.5V303H0.5z"/><g transform="translate(.5)"><path fill="url(#c)" d="M0 0H455V303H0z"/><path fill="url(#d)" d="M37.917 0H455V303H37.917z"/><path fill="url(#e)" d="M75.833 0H455V303H75.833z"/><path fill="url(#f)" d="M113.75 0H455V303H113.75z"/><path fill="url(#g)" d="M151.667 0H455V303H151.667z"/><path fill="url(#h)" d="M189.583 0H455V303H189.583z"/><path fill="url(#i)" d="M227.5 0H455V303H227.5z"/><path fill="url(#j)" d="M265.417 0H455V303H265.417z"/><path fill="url(#k)" d="M303.333 0H455V303H303.333z"/><path fill="url(#l)" d="M341.25 0H455V303H341.25z"/></g></g></g></g><g transform="translate(69 45)" fill="#FFF" fill-rule="nonzero"><path d="M21 0H3C1.344 0 0 1.344 0 3v18a3.001 3.001 0 0 0 6 0V6h15a3.001 3.001 0 0 0 0-6zm154 0h-18a3.001 3.001 0 0 0 0 6h15v15a3.001 3.001 0 0 0 6 0V3c0-1.656-1.344-3-3-3zm0 154c-1.656 0-3 1.344-3 3v15h-15a3.001 3.001 0 0 0 0 6h18c1.656 0 3-1.344 3-3v-18c0-1.656-1.344-3-3-3zM21 172H6v-15a3.001 3.001 0 0 0-6 0v18c0 1.656 1.344 3 3 3h18a3.001 3.001 0 0 0 0-6z"/><path d="M56.062 12H14.937A2.939 2.939 0 0 0 12 14.937v41.126A2.939 2.939 0 0 0 14.937 59h41.126A2.939 2.939 0 0 0 59 56.063V14.938A2.939 2.939 0 0 0 56.062 12zm-2.937 41.125h-35.25v-35.25h35.25v35.25z"/><path d="M45 23H27c-1.656 0-3 1.344-3 3v18c0 1.656 1.344 3 3 3h18c1.656 0 3-1.344 3-3V26c0-1.656-1.344-3-3-3zm-3 18H30V29h12v12zm14.062 78H14.937A2.939 2.939 0 0 0 12 121.937v41.126A2.939 2.939 0 0 0 14.937 166h41.126A2.939 2.939 0 0 0 59 163.063v-41.125A2.939 2.939 0 0 0 56.062 119zm-2.937 41.125h-35.25v-35.25h35.25v35.25z"/><path d="M45 130H27c-1.656 0-3 1.344-3 3v18c0 1.656 1.344 3 3 3h18c1.656 0 3-1.344 3-3v-18c0-1.656-1.344-3-3-3zm-3 18H30v-12h12v12zM163.062 12h-41.125A2.939 2.939 0 0 0 119 14.937v41.126A2.939 2.939 0 0 0 121.937 59h41.126A2.939 2.939 0 0 0 166 56.063V14.938A2.939 2.939 0 0 0 163.062 12zm-2.937 41.125h-35.25v-35.25h35.25v35.25z"/><path d="M152 23h-18c-1.656 0-3 1.344-3 3v18c0 1.656 1.344 3 3 3h18c1.656 0 3-1.344 3-3V26c0-1.656-1.344-3-3-3zm-3 18h-12V29h12v12zM56.062 80H14.937C13.316 80 12 81.12 12 82.5s1.316 2.5 2.937 2.5h41.126C57.684 85 59 83.88 59 82.5S57.684 80 56.062 80zM78 80h-9c-1.656 0-3 1.12-3 2.5s1.344 2.5 3 2.5h9c1.656 0 3-1.12 3-2.5S79.656 80 78 80zm.063 12H36.937C35.316 92 34 93.12 34 94.5s1.316 2.5 2.937 2.5h41.126C79.684 97 81 95.88 81 94.5S79.684 92 78.063 92zM23 92h-9c-1.656 0-3 1.12-3 2.5s1.344 2.5 3 2.5h9c1.656 0 3-1.12 3-2.5S24.656 92 23 92zm33.062 11H14.937c-1.621 0-2.937 1.12-2.937 2.5s1.316 2.5 2.937 2.5h41.126c1.621 0 2.937-1.12 2.937-2.5s-1.316-2.5-2.938-2.5zM78 103h-9c-1.656 0-3 1.12-3 2.5s1.344 2.5 3 2.5h9c1.656 0 3-1.12 3-2.5s-1.344-2.5-3-2.5zm17.5-91c-1.38 0-2.5 1.316-2.5 2.937v41.126C93 57.684 94.12 59 95.5 59s2.5-1.316 2.5-2.937V14.938C98 13.316 96.88 12 95.5 12zm-12 17c-1.38 0-2.5 1.3-2.5 2.9v23.2c0 1.6 1.12 2.9 2.5 2.9s2.5-1.3 2.5-2.9V31.9c0-1.6-1.12-2.9-2.5-2.9zm0-18c-1.38 0-2.5 1.344-2.5 3v6c0 1.656 1.12 3 2.5 3s2.5-1.344 2.5-3v-6c0-1.656-1.12-3-2.5-3zm23 1c-1.38 0-2.5 1.3-2.5 2.9v23.2c0 1.6 1.12 2.9 2.5 2.9s2.5-1.3 2.5-2.9V14.9c0-1.6-1.12-2.9-2.5-2.9zm0 35c-1.38 0-2.5 1.344-2.5 3v6c0 1.656 1.12 3 2.5 3s2.5-1.344 2.5-3v-6c0-1.656-1.12-3-2.5-3zm-34-35c-1.38 0-2.5 1.316-2.5 2.937v41.126C70 57.684 71.12 59 72.5 59s2.5-1.316 2.5-2.937V14.938C75 13.316 73.88 12 72.5 12zm23 107c-1.38 0-2.5 1.316-2.5 2.937v41.126c0 1.621 1.12 2.937 2.5 2.937s2.5-1.316 2.5-2.937v-41.125c0-1.622-1.12-2.938-2.5-2.938zm-12 17c-1.38 0-2.5 1.3-2.5 2.9v23.2c0 1.6 1.12 2.9 2.5 2.9s2.5-1.3 2.5-2.9v-23.2c0-1.6-1.12-2.9-2.5-2.9zm0-18c-1.38 0-2.5 1.344-2.5 3v6c0 1.656 1.12 3 2.5 3s2.5-1.344 2.5-3v-6c0-1.656-1.12-3-2.5-3zm23 0c-1.38 0-2.5 1.3-2.5 2.9v23.2c0 1.6 1.12 2.9 2.5 2.9s2.5-1.3 2.5-2.9v-23.2c0-1.6-1.12-2.9-2.5-2.9zm0 36c-1.38 0-2.5 1.344-2.5 3v6c0 1.656 1.12 3 2.5 3s2.5-1.344 2.5-3v-6c0-1.656-1.12-3-2.5-3zm-34-35c-1.38 0-2.5 1.316-2.5 2.937v41.126c0 1.621 1.12 2.937 2.5 2.937s2.5-1.316 2.5-2.937v-41.125c0-1.622-1.12-2.938-2.5-2.938zm69.55-39h-53.1C87.322 80 86 81.12 86 82.5s1.322 2.5 2.95 2.5h53.1c1.628 0 2.95-1.12 2.95-2.5s-1.322-2.5-2.95-2.5zM164 80h-9c-1.656 0-3 1.12-3 2.5s1.344 2.5 3 2.5h9c1.656 0 3-1.12 3-2.5s-1.344-2.5-3-2.5zm-.95 12h-53.1c-1.628 0-2.95 1.12-2.95 2.5s1.322 2.5 2.95 2.5h53.1c1.628 0 2.95-1.12 2.95-2.5s-1.321-2.5-2.95-2.5zM98 92h-9c-1.656 0-3 1.12-3 2.5s1.344 2.5 3 2.5h9c1.656 0 3-1.12 3-2.5S99.656 92 98 92zM78.063 69H36.937C35.316 69 34 70.12 34 71.5s1.316 2.5 2.937 2.5h41.126C79.684 74 81 72.88 81 71.5S79.684 69 78.063 69zM23 69h-9c-1.656 0-3 1.12-3 2.5s1.344 2.5 3 2.5h9c1.656 0 3-1.12 3-2.5S24.656 69 23 69zm140.05 0h-53.1c-1.628 0-2.95 1.12-2.95 2.5s1.322 2.5 2.95 2.5h53.1c1.628 0 2.95-1.12 2.95-2.5s-1.321-2.5-2.95-2.5zM98 69h-9c-1.656 0-3 1.12-3 2.5s1.344 2.5 3 2.5h9c1.656 0 3-1.12 3-2.5S99.656 69 98 69zm44.05 34h-53.1c-1.628 0-2.95 1.12-2.95 2.5s1.322 2.5 2.95 2.5h53.1c1.628 0 2.95-1.12 2.95-2.5s-1.322-2.5-2.95-2.5zm21.95 0h-9c-1.656 0-3 1.12-3 2.5s1.344 2.5 3 2.5h9c1.656 0 3-1.12 3-2.5s-1.344-2.5-3-2.5zm0 16h-45c-1.656 0-3 1.12-3 2.5s1.344 2.5 3 2.5h45c1.656 0 3-1.12 3-2.5s-1.344-2.5-3-2.5zm-.9 15h-23.2c-1.6 0-2.9 1.12-2.9 2.5s1.3 2.5 2.9 2.5h23.2c1.6 0 2.9-1.12 2.9-2.5s-1.299-2.5-2.9-2.5zm-35.1 0h-9c-1.656 0-3 1.12-3 2.5s1.344 2.5 3 2.5h9c1.656 0 3-1.12 3-2.5s-1.344-2.5-3-2.5zm35.1 26h-23.2c-1.6 0-2.9 1.12-2.9 2.5s1.3 2.5 2.9 2.5h23.2c1.6 0 2.9-1.12 2.9-2.5s-1.299-2.5-2.9-2.5zm-35.1 0h-9c-1.656 0-3 1.12-3 2.5s1.344 2.5 3 2.5h9c1.656 0 3-1.12 3-2.5s-1.344-2.5-3-2.5zm36-14h-45c-1.656 0-3 1.12-3 2.5s1.344 2.5 3 2.5h45c1.656 0 3-1.12 3-2.5s-1.344-2.5-3-2.5z"/></g></g></svg>